<svg xmlns="http://www.w3.org/2000/svg" width="64pt" height="64pt" style="isolation:isolate" viewBox="0 0 64 64" id="lock">
  <defs>
    <clipPath id="a">
      <rect width="64" height="64"></rect>
    </clipPath>
  </defs>
  <g clip-path="url(#a)">
    <path d="M35.418 9.179Q39.866 11.944 39.866 17.086L39.866 25.863C39.866 26.415 40.314 26.865 40.866 26.868L45.7 26.89C46.252 26.892 46.7 26.446 46.7 25.895L46.7 17.117Q46.7 8.86 39.621 4.413C35.415 1.77 28.556 1.723 24.314 4.307Q17.3 8.58 17.3 16.837L17.3 25.988C17.3 26.54 17.748 26.99 18.3 26.993L23.134 27.015C23.686 27.017 24.134 26.571 24.134 26.019L24.134 16.868Q24.134 11.709 28.574 9.096C30.477 7.976 33.544 8.013 35.418 9.179zM15.088 56.363L15.088 30.994C15.088 29.438 16.351 28.175 17.906 28.175L46.094 28.175C47.649 28.175 48.912 29.438 48.912 30.994L48.912 56.363C48.912 59.474 46.386 62 43.275 62L20.725 62C17.614 62 15.088 59.474 15.088 56.363z"></path>
  </g>
</svg>
